<svg xmlns="http://www.w3.org/2000/svg" version="1.0" width="1320.000000pt" height="1000.000000pt" viewBox="0 0 1320.000000 1000.000000" preserveAspectRatio="xMidYMid meet">

<g transform="translate(0.000000,1000.000000) scale(0.100000,-0.100000)" fill="#000000" stroke="none">
<path d="M3085 6239 c-44 -5 -102 -15 -130 -22 l-50 -14 3 -43 c2 -25 5 -46 7 -48 2 -2 37 4 77 13 40 10 130 20 199 22 381 16 731 -152 962 -462 300 -404 303 -965 7 -1365 -220 -296 -567 -470 -934 -470 -489 0 -930 320 -1085 788 -114 343 -66 700 134 1006 16 25 16 25 -25 46 -49 25 -44 29 -108 -85 -56 -100 -107 -234 -133 -350 -29 -130 -32 -355 -5 -490 122 -623 707 -1064 1334 -1005 305 29 565 153 779 371 90 93 128 142 192 254 92 161 144 327 160 515 35 416 -132 808 -452 1065 -201 162 -415 248 -676 275 -115 11 -141 11 -256 -1z"/>
<path d="M9830 5010 l0 -1140 90 0 90 0 0 1140 0 1140 -90 0 -90 0 0 -1140z"/>
<path d="M3047 6040 c-312 -56 -582 -254 -736 -541 -138 -255 -161 -558 -66 -839 65 -192 226 -400 398 -513 81 -54 228 -121 317 -146 139 -38 371 -45 497 -15 57 14 62 20 51 66 -5 23 -11 44 -13 46 -2 2 -28 -1 -57 -8 -254 -55 -520 -9 -725 127 -78 51 -196 165 -248 238 -59 83 -110 188 -142 292 -25 81 -27 101 -27 263 0 163 2 181 28 265 175 572 834 844 1355 559 310 -170 506 -519 487 -869 -9 -174 -49 -311 -130 -443 l-44 -71 41 -25 42 -25 18 22 c39 48 119 227 144 322 23 88 26 119 26 265 1 147 -2 176 -26 265 -94 357 -367 633 -732 741 -78 23 -112 27 -250 30 -88 1 -182 -1 -208 -6z"/>
<path d="M3158 5618 l-3 -71 -51 -17 c-154 -50 -247 -152 -261 -285 -17 -160 81 -275 275 -325 l42 -11 0 -149 0 -149 -42 19 c-79 35 -138 110 -138 175 0 23 -4 25 -50 27 -27 1 -58 2 -67 2 -43 2 6 -164 71 -241 38 -44 112 -91 173 -109 l53 -15 0 -85 0 -84 70 0 70 0 0 79 0 79 38 7 c20 3 60 17 87 29 107 48 165 128 185 250 13 83 2 132 -42 182 -45 50 -108 79 -240 108 l-28 6 0 185 0 185 38 -19 c71 -37 127 -120 139 -207 6 -45 7 -46 36 -40 16 3 47 6 69 6 l40 0 -7 43 c-28 165 -137 306 -266 344 l-49 15 0 69 0 69 -70 0 -69 0 -3 -72z m2 -393 c0 -96 -2 -175 -5 -175 -22 0 -120 47 -145 70 -26 24 -30 35 -30 79 0 84 37 143 115 184 65 35 65 36 65 -158z m269 -369 c52 -25 60 -47 41 -115 -18 -68 -71 -118 -142 -135 l-28 -6 0 146 0 147 42 -7 c23 -4 62 -17 87 -30z"/>
<path d="M10630 5460 l0 -200 -150 0 -150 0 0 -80 0 -80 150 0 150 0 0 -482 c0 -520 2 -544 53 -631 34 -57 62 -81 132 -113 84 -39 191 -44 305 -15 46 12 87 24 91 29 8 7 -3 138 -12 146 -3 3 -33 -4 -68 -14 -69 -22 -164 -26 -208 -9 -34 13 -80 55 -99 91 -11 22 -14 114 -14 513 l0 485 195 0 195 0 0 80 0 80 -195 0 -195 0 0 200 0 200 -90 0 -90 0 0 -200z"/>
<path d="M6965 5286 c-141 -24 -279 -82 -365 -154 l-34 -29 48 -57 c27 -31 52 -56 55 -56 4 0 23 12 42 26 92 71 257 123 390 124 113 0 249 -49 306 -111 50 -56 83 -164 83 -275 l0 -41 -237 -6 c-213 -4 -248 -8 -336 -30 -195 -52 -313 -132 -374 -254 -50 -103 -43 -278 16 -373 98 -159 303 -234 544 -200 140 20 250 82 335 191 l47 61 7 -93 c12 -148 5 -139 99 -139 l81 0 -6 43 c-4 23 -10 254 -15 512 -7 383 -11 481 -25 528 -48 174 -152 275 -327 321 -85 22 -241 27 -334 12z m521 -818 c-11 -173 -49 -270 -136 -352 -85 -80 -189 -116 -336 -116 -221 0 -361 135 -324 313 20 96 118 180 261 221 90 26 164 33 358 35 l184 1 -7 -102z"/>
<path d="M5070 5043 c49 -120 176 -432 282 -693 l194 -475 93 0 93 0 74 190 c41 105 161 408 266 675 105 267 193 493 196 503 4 16 -3 18 -83 15 l-88 -3 -226 -597 -226 -597 -40 102 c-21 56 -125 325 -230 597 l-191 495 -102 3 -101 3 89 -218z"/>
<path d="M8113 4783 c4 -380 8 -491 21 -544 36 -154 90 -244 186 -312 146 -102 389 -114 571 -28 83 39 139 87 192 165 l42 61 6 -30 c4 -16 7 -74 8 -127 l1 -98 91 0 91 0 -6 48 c-3 26 -9 338 -12 695 l-7 647 -82 0 -83 0 -5 -402 c-3 -323 -8 -417 -21 -472 -56 -244 -224 -386 -454 -386 -184 0 -288 78 -338 255 -15 52 -18 124 -22 533 l-4 472 -90 0 -90 0 5 -477z"/>
</g>
</svg>