<svg version="1.1" id="Layer_1" xmlns="http://www.w3.org/2000/svg" xmlns:xlink="http://www.w3.org/1999/xlink" x="0px" y="0px"
	 width="100%" viewBox="0 0 1024 1024" enable-background="new 0 0 1024 1024" xml:space="preserve">
<path fill="#000000" opacity="1.000000" stroke="none" 
	d="
M498.000000,1025.000000 
	C454.645782,1025.000000 411.291534,1025.000000 367.857544,1024.866699 
	C372.539734,1023.534546 377.395538,1024.070679 382.210205,1024.016846 
	C397.740570,1023.843140 413.280975,1024.531494 428.805176,1023.457886 
	C427.149323,1023.176270 425.492279,1023.180237 423.835236,1023.175659 
	C405.672699,1023.125549 387.510040,1023.096191 369.347778,1022.997009 
	C366.873932,1022.983459 363.508301,1023.657959 362.178741,1021.711365 
	C357.885406,1015.425720 351.019684,1015.492859 344.902527,1014.071045 
	C332.774078,1011.251770 323.058655,1004.944580 316.119873,994.793762 
	C310.187988,986.116089 302.653351,979.115417 293.142883,975.416565 
	C271.407440,966.962952 252.986313,952.407959 231.742386,943.149658 
	C229.973297,942.378723 228.465179,940.875000 227.020523,939.515381 
	C217.453262,930.511841 207.756317,921.614380 199.389297,911.448425 
	C190.466736,900.607544 179.704422,891.627319 169.904861,881.677856 
	C154.484756,866.022034 140.167068,849.292175 123.421806,834.926392 
	C114.346283,827.140442 106.925667,818.004700 103.496513,806.149963 
	C100.481087,795.725525 97.928749,785.230286 96.808746,774.405701 
	C95.968315,766.283142 95.093018,758.111206 92.535774,750.328918 
	C87.998978,736.522583 84.796906,722.384644 81.808762,708.208374 
	C77.172592,686.213745 67.627975,666.360413 56.105087,647.318848 
	C54.454491,644.591248 52.387260,641.613647 48.719234,642.312622 
	C43.931797,643.224976 42.063919,640.593872 40.521664,636.956299 
	C38.726547,632.722290 38.204247,628.366272 38.505348,623.768433 
	C39.336273,611.080200 43.031258,598.875977 44.615677,586.325745 
	C45.654476,578.097351 50.643467,571.513855 54.417061,564.685059 
	C59.432770,555.608643 63.825665,546.598450 65.317421,536.317627 
	C66.405312,528.820190 65.685448,521.396973 64.597214,513.929504 
	C62.586971,500.134979 69.111069,486.145844 81.312317,480.609253 
	C90.135086,476.605743 97.177383,470.880127 104.588722,464.860779 
	C117.666428,454.239319 122.617622,440.546204 122.728249,424.966919 
	C122.894058,401.615662 126.305687,378.886261 131.817947,356.280823 
	C136.434204,337.349762 137.606033,318.038422 134.513794,298.723633 
	C133.158035,290.255219 132.496475,281.807495 133.151764,273.346863 
	C133.675613,266.583466 132.114777,259.202606 135.396469,253.167358 
	C140.017197,244.669540 143.001617,235.391388 148.112335,227.213333 
	C156.705719,213.462402 166.673126,201.942856 184.857224,200.657242 
	C193.258865,200.063232 202.659592,197.900864 206.937195,189.107285 
	C210.380493,182.028870 213.202713,174.456680 215.351135,166.909149 
	C217.101303,160.760651 220.343826,156.642487 225.068634,153.029465 
	C234.308960,145.963455 243.370544,138.691681 253.044479,132.169586 
	C262.987457,125.466087 270.800201,115.435410 283.511322,113.156914 
	C283.985260,113.071953 284.416016,112.741852 284.864838,112.521774 
	C296.771912,106.683395 309.584381,104.382080 322.613861,104.326439 
	C336.753235,104.266045 350.881165,104.831223 365.032623,104.011726 
	C380.552887,103.112961 393.265839,96.776955 403.432739,85.267509 
	C406.971039,81.261986 411.092712,78.349541 416.006317,76.553528 
	C420.334930,74.971336 424.145630,72.614296 427.233856,69.288086 
	C431.506317,64.686356 436.762268,61.968548 442.780579,60.848293 
	C457.381256,58.130520 472.101959,56.322086 486.986267,57.032261 
	C502.840912,57.788734 518.577087,55.713402 534.386292,55.383827 
	C543.207581,55.199924 552.102478,54.208862 560.615723,51.955349 
	C579.846924,46.864731 599.056580,48.488731 617.994873,52.301121 
	C636.216370,55.969200 654.992310,57.702721 672.240784,65.543968 
	C675.864563,67.191360 679.670471,68.432930 683.627014,69.239716 
	C701.117615,72.806183 716.977905,81.452499 734.284790,85.631477 
	C735.709534,85.975510 736.965515,86.968521 738.350891,87.535370 
	C741.740601,88.922348 745.052856,90.739159 748.586182,91.492592 
	C763.883545,94.754539 778.020203,100.752121 791.599731,108.399918 
	C808.263672,117.784760 822.892883,129.729462 836.845459,142.688095 
	C847.583984,152.661636 857.689636,163.267090 868.322266,173.330276 
	C873.304688,178.045776 878.025208,182.948990 882.250366,188.305679 
	C895.636230,205.276215 904.747375,224.853271 915.320801,243.511230 
	C924.289307,259.337158 933.369507,274.927765 945.121826,288.966248 
	C957.376770,303.605133 968.150757,319.228668 970.745361,338.997009 
	C971.981323,348.413940 973.442810,357.798645 974.131836,367.278473 
	C975.629089,387.876404 975.446716,408.571045 977.960388,429.117340 
	C979.537964,442.011902 981.992554,454.761749 983.353027,467.710297 
	C985.059570,483.952057 984.501404,500.402832 987.371399,516.468323 
	C992.261292,543.841370 993.361206,571.398743 993.070740,599.092773 
	C993.027161,603.251953 993.064148,607.441101 993.495056,611.571350 
	C995.674866,632.465393 997.140808,653.378174 996.029419,674.403137 
	C995.403503,686.243713 993.611145,697.941040 991.440430,709.565674 
	C990.301636,715.664246 988.032959,721.030151 980.344543,721.763489 
	C977.427368,722.041748 974.944031,724.429993 973.735535,727.370422 
	C971.518372,732.764771 968.705200,737.830017 966.010376,742.990479 
	C957.593811,759.107910 948.205322,774.679504 938.393982,789.908875 
	C924.779785,811.041077 906.930542,828.794128 887.808350,844.850342 
	C868.618225,860.963562 849.602905,876.945984 834.600342,897.289307 
	C827.690491,906.658875 819.541931,915.085144 809.798096,921.762695 
	C800.867249,927.883057 791.524414,933.157837 781.786255,937.973022 
	C769.763306,943.917908 758.300720,950.989380 746.830200,958.054199 
	C732.393066,966.946106 717.900330,975.812622 703.340759,984.538391 
	C699.049744,987.110168 695.748230,990.614441 694.247986,995.411499 
	C692.917358,999.666138 690.263306,1002.689697 686.608826,1004.918823 
	C679.867554,1009.030884 672.740356,1012.097046 664.789551,1013.110962 
	C644.625427,1015.682495 624.245667,1015.979553 604.120056,1019.007202 
	C598.364807,1019.872986 592.619263,1021.328003 586.896545,1021.668274 
	C573.109924,1022.488037 559.272949,1023.764893 545.457581,1022.718750 
	C534.793396,1021.911316 524.143066,1021.979736 513.488525,1022.129822 
	C506.021973,1022.234924 498.563629,1022.922913 489.838409,1023.423096 
	C493.441315,1024.119263 495.720642,1024.559570 498.000000,1025.000000 
M770.738831,278.747711 
	C742.656860,247.363083 709.923157,221.919403 672.507751,202.645996 
	C637.146362,184.430679 599.329163,174.576782 559.899414,170.129501 
	C521.466919,165.794724 483.379456,167.554169 445.683228,175.887604 
	C376.842682,191.105988 318.575867,224.669617 272.098419,277.911835 
	C234.787308,320.653564 205.208038,367.960114 188.755997,422.765869 
	C188.291214,424.314148 188.269989,426.297668 186.251526,427.121735 
	C184.842117,424.454254 186.783295,422.337982 186.634964,419.787415 
	C186.259369,420.582672 185.885620,421.117828 185.745071,421.708435 
	C180.200684,445.009399 177.514404,468.735107 176.558731,492.581635 
	C175.987198,506.843140 176.221695,521.167603 177.107117,535.502075 
	C178.027359,550.400696 178.398346,565.326599 180.317551,580.153748 
	C183.668472,606.042114 191.463333,630.585205 202.102219,654.372070 
	C207.303772,666.001831 214.637054,676.672729 217.440903,689.439087 
	C218.384048,693.733398 220.909683,697.819885 223.908173,701.471680 
	C224.911560,700.238281 223.079956,699.344177 224.378296,698.329163 
	C224.831879,698.734192 225.383972,699.097412 225.765762,699.592102 
	C226.985443,701.172485 228.205444,702.759277 229.313461,704.418335 
	C258.763245,748.512207 296.220886,784.344910 341.755524,811.361572 
	C398.725250,845.162781 460.468781,861.212708 526.855225,858.914124 
	C563.753479,857.636536 599.644409,851.021606 634.397705,838.675842 
	C697.123596,816.393005 748.557800,778.332581 789.903503,726.372070 
	C790.937683,725.072449 792.136475,722.623291 793.049988,722.718140 
	C798.564941,723.290649 798.649658,718.274841 800.663574,715.584961 
	C810.302734,702.710815 814.920227,687.171753 822.639954,673.282410 
	C835.987610,649.267395 845.343750,623.837952 851.434509,597.097046 
	C856.499634,574.859436 859.094177,552.391479 859.742004,529.588196 
	C860.442627,504.926788 857.591675,480.467865 856.420044,455.918335 
	C856.202393,451.357391 855.725830,446.683868 855.132751,442.076630 
	C854.158386,434.507080 851.079041,427.669983 848.959595,420.505310 
	C833.331299,367.674438 806.536560,321.170044 770.738831,278.747711 
M259.961853,209.929276 
	C259.208801,205.607498 258.307556,201.096634 254.420074,198.595047 
	C243.293655,191.435226 231.369644,188.293381 218.381592,193.121552 
	C213.045517,195.105194 210.115814,198.909409 209.985825,204.836502 
	C209.794708,213.551331 212.291977,221.197327 218.211212,227.686066 
	C225.058380,235.192001 235.864304,237.358780 246.069656,233.200272 
	C255.521484,229.348846 260.404297,221.527405 259.961853,209.929276 
M816.977356,751.611633 
	C814.557251,752.578857 813.073120,754.209351 813.676941,756.952759 
	C814.028931,758.552124 815.234131,759.532715 816.929810,759.494934 
	C819.074341,759.447266 820.266785,758.040283 820.678467,756.123962 
	C821.197815,753.706604 820.573181,751.811523 816.977356,751.611633 
M753.765259,771.237000 
	C751.944031,772.881592 750.122864,774.526245 748.301697,776.170898 
	C748.376709,776.245117 748.451782,776.319275 748.526855,776.393433 
	C756.153076,768.766846 763.779358,761.140259 771.405579,753.513672 
	C771.429749,753.536194 771.453857,753.558777 771.477966,753.581360 
	C765.740295,759.303650 760.002625,765.025940 753.765259,771.237000 
M753.714478,252.516479 
	C753.068359,252.128006 752.422180,251.739548 751.776062,251.351089 
	C752.096924,251.062607 752.417847,250.774139 752.738708,250.485657 
	C756.956909,254.804840 761.175171,259.124023 765.393433,263.443207 
	C765.231812,263.589478 765.070190,263.735748 764.908569,263.882019 
	C761.333862,260.207092 757.759216,256.532166 753.714478,252.516479 
z"/>
<path fill="#000000" opacity="1.000000" stroke="none" 
	d="
M587.077026,668.029175 
	C606.588806,655.788513 625.836365,643.796753 642.334351,628.017578 
	C663.470581,607.802246 678.822937,584.311768 683.041992,554.752319 
	C684.333435,545.704468 684.903503,536.547058 685.612366,527.424866 
	C686.115417,520.951477 686.218445,514.447937 686.643738,507.967224 
	C687.080383,501.313904 692.502197,496.236267 699.100647,496.119629 
	C702.121277,496.066223 704.117615,497.640381 705.393494,500.239319 
	C706.586487,502.669159 707.139587,505.310516 707.228210,507.966400 
	C708.678711,551.433167 699.105774,591.623535 671.864319,626.544983 
	C656.360474,646.419556 637.064697,661.850952 615.391235,674.395203 
	C588.173462,690.148560 558.856323,701.179077 529.639465,712.507080 
	C520.023071,716.235596 511.400513,716.236023 501.654907,713.225708 
	C463.389099,701.405823 427.630035,684.682068 396.172424,659.744446 
	C372.123810,640.680115 351.938416,618.291626 340.981995,588.839478 
	C332.592377,566.287048 328.194580,543.020691 328.102112,518.969116 
	C328.058563,507.639954 328.251068,496.308655 328.448425,484.980255 
	C328.549683,479.166412 320.695496,474.035400 315.438110,476.615173 
	C313.892822,477.373444 313.494537,478.783936 313.359497,480.338470 
	C308.868500,532.033630 314.421783,581.791504 341.805115,627.309937 
	C356.840576,652.302917 378.354004,670.710632 402.189362,686.822510 
	C436.084503,709.734497 473.215393,725.399414 512.381287,736.606750 
	C515.970459,737.633789 519.452026,738.041443 523.156006,736.830322 
	C567.774658,722.241394 610.173584,703.283203 647.519897,674.236389 
	C681.589294,647.738037 706.823486,615.132446 718.489258,572.909607 
	C726.558105,543.705505 727.447998,514.250854 720.243103,484.974487 
	C711.991089,451.443024 700.573303,418.881104 685.100281,387.920807 
	C667.497559,352.699188 644.422913,321.082184 619.653198,290.659943 
	C592.810730,257.692017 561.183411,229.531174 529.519287,201.416824 
	C526.280090,198.540787 522.603088,195.968307 520.626099,191.727478 
	C523.496887,190.238434 525.022339,191.989410 526.680725,192.839401 
	C550.789917,205.196365 572.924683,220.608505 594.572144,236.776306 
	C624.082642,258.816833 653.361511,281.132751 680.645081,305.955109 
	C728.964050,349.915192 761.210510,403.085083 773.520935,467.670746 
	C783.435425,519.685730 777.187012,570.113586 757.801208,619.079529 
	C744.963501,651.506104 728.925964,682.147278 704.798218,707.805908 
	C666.930969,748.075623 620.972290,773.470459 566.169617,782.420349 
	C543.732605,786.084595 521.112122,788.351685 498.511841,786.130066 
	C408.527100,777.284424 338.777252,736.351196 294.978271,655.459961 
	C279.351562,626.599426 269.741486,595.673767 265.925934,563.075256 
	C258.232513,497.345673 272.133423,436.849792 308.846008,381.354614 
	C333.813568,343.613281 365.609192,312.644379 399.936310,283.832916 
	C434.201752,255.073212 470.136932,228.639374 508.381531,205.385300 
	C512.046814,203.156647 515.569458,200.693405 519.618225,198.037338 
	C521.353149,204.772614 519.631104,210.907150 518.849426,217.015137 
	C514.924805,247.682220 502.763580,275.535522 489.923157,303.286133 
	C474.336792,336.971283 451.224945,364.959991 425.669006,391.214478 
	C409.460754,407.865845 399.653595,427.666992 395.286163,450.310486 
	C394.276337,455.545929 390.906738,458.878601 386.710876,461.427246 
	C376.567291,467.588684 366.004913,472.947845 354.282990,475.387360 
	C349.286163,476.427277 347.525421,478.801086 347.690094,483.980225 
	C348.245758,501.456085 347.573273,518.958130 349.231537,536.416077 
	C353.261932,578.848267 370.505280,614.172241 403.800995,641.586060 
	C433.576569,666.101562 468.205627,680.502441 504.012512,693.306641 
	C520.510925,699.206299 534.344482,693.784058 548.645386,687.971497 
	C561.934998,682.570068 574.626953,675.897400 587.077026,668.029175 
M386.042053,373.480988 
	C382.239746,378.057648 376.274780,381.472290 374.841400,387.247101 
	C372.010925,398.650574 373.758240,409.116791 382.990021,417.375793 
	C388.559601,422.358490 395.655121,421.141266 399.424438,414.526031 
	C404.458099,405.691833 410.125854,397.314758 416.272858,389.222076 
	C421.329620,382.564728 417.372772,370.418762 409.240784,368.648346 
	C401.296692,366.918854 393.305542,367.298462 386.042053,373.480988 
z"/>
<path fill="#000000" opacity="1.000000" stroke="none" 
	d="
M643.169739,476.146118 
	C643.225891,506.289642 643.295410,535.950378 643.296204,565.611084 
	C643.296387,572.888916 643.192932,572.888916 635.978394,573.986084 
	C622.331360,576.061462 620.846985,574.849731 620.833191,561.490784 
	C620.800293,529.663208 620.390381,497.829437 620.894104,466.010254 
	C621.247314,443.695862 612.928894,425.571930 597.363220,410.231384 
	C594.646423,407.553894 591.220459,406.302643 587.713440,405.201996 
	C584.774170,404.279510 583.273987,406.564575 582.108948,408.395477 
	C579.730164,412.133728 577.309509,412.053345 573.887024,409.785187 
	C562.080261,401.960510 549.307312,396.781555 535.118469,394.752106 
	C498.938599,389.577271 458.702362,416.375916 450.000214,451.954559 
	C448.571747,457.794800 448.418091,463.829865 448.439423,469.835510 
	C448.618958,520.323425 448.839172,570.811218 448.974548,621.299194 
	C449.002380,631.676086 450.489716,633.356262 437.437744,628.812317 
	C432.781952,627.191467 430.730194,624.211365 430.744690,619.068420 
	C430.882660,570.078186 431.433014,521.078552 430.696228,472.099182 
	C429.841949,415.306641 475.069855,383.536163 514.980957,379.491669 
	C519.303101,379.053711 523.601379,378.772491 527.935059,378.732574 
	C529.668396,378.716644 531.877869,379.240601 532.217041,376.531677 
	C532.521790,374.098724 531.015198,372.756958 528.942322,372.165588 
	C526.226746,371.390900 523.428223,370.911560 520.676880,370.256866 
	C500.768768,365.519623 483.616425,372.247040 468.613495,384.368500 
	C458.963806,392.164886 450.316223,401.324371 442.267822,410.943146 
	C435.248932,419.331451 429.919922,428.722290 424.910614,438.316162 
	C422.014069,443.863525 421.259521,450.053772 421.238373,456.273224 
	C421.097870,497.598389 421.016998,538.923767 420.852509,580.248779 
	C420.804749,592.244263 420.616364,604.240662 420.319397,616.232361 
	C420.268066,618.304626 421.598206,621.551514 418.370514,622.128479 
	C415.515198,622.638733 412.892090,620.981384 411.146576,618.495178 
	C409.847931,616.645508 409.652618,614.478516 409.655609,612.278748 
	C409.721161,563.959229 409.788269,515.639771 409.836639,467.320251 
	C409.856812,447.158691 416.957886,429.205688 427.102966,412.245300 
	C429.666962,407.958832 431.380035,403.208618 434.525024,399.244598 
	C444.854828,386.224762 458.437286,377.161285 472.279266,368.526398 
	C509.897980,345.059143 554.605957,347.628937 590.059937,374.637299 
	C616.521545,394.795471 632.442871,421.530884 640.507385,453.368164 
	C642.356445,460.668121 642.324585,468.224792 643.169739,476.146118 
z"/>
<path fill="#000000" opacity="1.000000" stroke="none" 
	d="
M461.731049,828.485596 
	C417.253998,820.875671 378.942657,800.767090 343.169373,774.873901 
	C298.062683,742.225098 262.076996,701.911926 238.061752,651.359314 
	C225.461700,624.835999 218.278091,597.003540 217.752182,567.558594 
	C217.716537,565.562439 217.805634,563.562134 217.900101,561.566833 
	C217.922028,561.103760 218.204193,560.653076 218.610352,559.511841 
	C221.616638,564.511169 221.309814,569.746704 222.100296,574.584229 
	C230.705170,627.243958 251.335724,674.200806 286.558258,714.722046 
	C308.075806,739.476562 333.513794,759.389160 359.718658,778.730347 
	C380.948334,794.399597 404.027679,805.689331 429.175049,813.097229 
	C450.190338,819.287903 471.703186,822.478821 493.542236,823.873901 
	C537.862427,826.705139 580.864441,820.795349 622.481812,805.095520 
	C646.084351,796.191650 666.929199,782.414673 687.554443,768.317078 
	C719.943237,746.178772 747.954773,719.459717 769.088440,686.238098 
	C793.903748,647.229126 809.831909,604.773315 815.942627,558.791138 
	C822.102051,512.442627 818.561523,466.654205 806.334595,421.726105 
	C793.757690,375.512177 768.243103,336.661804 735.306702,302.294159 
	C701.228333,266.735107 660.955688,239.828979 617.815674,216.787109 
	C616.142334,215.893402 613.982239,215.542389 613.086792,213.371399 
	C614.810364,211.859741 616.320557,213.199432 617.647644,213.799194 
	C625.638550,217.410553 633.662659,219.324097 642.425537,216.376083 
	C644.658691,215.624802 647.183105,217.486877 649.544067,218.284088 
	C694.993896,233.631317 728.720703,263.771393 755.968079,302.238251 
	C787.265869,346.423309 809.331726,394.754456 820.890259,447.660492 
	C828.215698,481.190338 830.172974,515.075989 826.604614,549.389771 
	C820.079163,612.140076 796.323059,667.588745 755.796204,715.456177 
	C713.526184,765.382629 661.052429,801.117188 598.448181,820.836243 
	C564.995972,831.373108 530.474426,835.202820 495.334137,832.529114 
	C484.203064,831.682190 473.130280,830.596130 461.731049,828.485596 
M673.442566,238.903809 
	C671.282837,237.231110 669.442444,234.893768 666.111450,235.536957 
	C668.254578,237.465714 670.602600,239.057953 673.083801,240.404694 
	C673.796875,240.791748 674.166321,240.045807 673.442566,238.903809 
z"/>
<path fill="#000000" opacity="1.000000" stroke="none" 
	d="
M604.308716,481.138184 
	C602.870361,488.695984 607.357605,493.731506 610.699768,499.753204 
	C604.174133,496.385498 597.412292,496.883759 590.780640,496.734253 
	C580.290710,496.497711 569.794128,496.565186 559.300659,496.470581 
	C556.225525,496.442871 554.141663,497.237274 552.775208,500.548004 
	C550.655579,505.683411 547.204041,510.111084 542.186768,512.826904 
	C538.747864,514.688354 537.978516,517.402283 537.817871,521.035522 
	C537.066406,538.029785 537.249878,555.028259 537.548828,572.018616 
	C537.628906,576.568542 536.266663,577.813721 531.913574,577.497925 
	C526.440247,577.100830 520.920959,577.359314 515.422119,577.287292 
	C509.275604,577.206787 508.905853,576.775574 508.850830,570.734619 
	C508.705170,554.742615 509.788879,538.761047 509.134460,522.758789 
	C508.973236,518.816528 507.725800,516.462646 504.069641,514.582092 
	C487.519806,506.069794 481.512268,488.786041 488.871704,471.790649 
	C496.040009,455.236694 514.779785,446.740997 531.556458,452.418365 
	C541.345520,455.731079 548.837830,461.757202 553.083557,471.271606 
	C554.620911,474.716766 556.764893,475.838043 560.398254,475.807800 
	C573.061646,475.702301 585.727661,475.826538 598.391724,475.959442 
	C601.454468,475.991577 604.690796,476.171783 604.308716,481.138184 
z"/>
<path fill="#000000" opacity="1.000000" stroke="none" 
	d="
M269.284698,327.341614 
	C311.721466,262.904510 370.642975,223.634033 445.836548,208.700226 
	C438.029785,214.742966 428.023987,216.528641 419.433899,221.758530 
	C421.483185,222.922577 422.945007,220.402435 424.905701,221.608551 
	C424.301758,223.530212 422.428192,224.014343 420.975983,224.866867 
	C391.653992,242.080429 362.562378,259.587372 336.258362,281.379120 
	C307.176880,305.471893 281.619659,332.639618 261.167419,364.489166 
	C260.058685,366.215729 259.691040,369.441132 255.843216,367.760254 
	C254.553268,367.196747 253.720917,369.962555 252.924255,371.360931 
	C242.056564,390.436890 234.645081,410.925537 228.205933,431.818359 
	C223.590042,446.795319 220.026031,462.008728 217.482956,477.471069 
	C217.145981,479.520020 217.165512,481.768951 214.697113,484.388458 
	C216.846100,425.797394 238.097046,375.042755 269.284698,327.341614 
z"/>
<path fill="#000000" opacity="1.000000" stroke="none" 
	d="
M519.895264,310.186066 
	C506.940125,308.643250 501.235718,299.716156 505.854309,288.884583 
	C508.685059,282.245850 514.364075,278.678406 520.712524,279.550842 
	C526.979858,280.412201 533.624695,287.379883 534.303528,293.802399 
	C535.004028,300.428467 531.101501,306.660004 524.652466,309.062286 
	C523.261475,309.580414 521.761475,309.805725 519.895264,310.186066 
z"/>
</svg>